<?xml version="1.0" standalone="no"?><!DOCTYPE svg PUBLIC "-//W3C//DTD SVG 1.1//EN" "http://www.w3.org/Graphics/SVG/1.1/DTD/svg11.dtd"><svg t="1638421481451" class="icon" viewBox="0 0 1024 1024" version="1.1" xmlns="http://www.w3.org/2000/svg" p-id="2990" xmlns:xlink="http://www.w3.org/1999/xlink" width="32" height="32"><defs><style type="text/css"></style></defs><path d="M544.768 856.064V659.456h131.072L512 462.848 348.16 659.456h131.072v196.608H315.392v-2.048l-16.384 2.048c-69.632-2.048-127.488-26.112-173.568-72.192S55.296 679.936 53.248 610.304c1.364992-64.171008 22.356992-118.612992 62.976-163.328S208.555008 375.808 271.36 367.616c12.288-59.392 40.448-107.179008 84.48-143.36s96.084992-54.955008 156.16-56.32c60.075008 1.364992 112.128 20.139008 156.16 56.32S740.352 308.224 752.64 367.616c62.804992 8.192 114.516992 34.644992 155.136 79.36S969.387008 546.132992 970.752 610.304c-2.048 69.632-26.112 127.488-72.192 173.568S794.624 854.016 724.992 856.064l-16.384-2.048v2.048H544.768z" p-id="2991" fill="#BCBBBC"></path></svg>